<svg width="24" height="24" viewBox="0 0 24 24" fill="none" xmlns="http://www.w3.org/2000/svg">
<g opacity="0.6">
<path d="M19.418 8.99993H20V3.99993L19.418 8.99993ZM19.418 8.99993C18.7542 7.35806 17.5643 5.98284 16.035 5.08979C14.5056 4.19674 12.7232 3.83634 10.967 4.06507C9.21086 4.2938 7.58021 5.09872 6.33063 6.3537C5.08105 7.60869 4.28316 9.24279 4.062 10.9999M19.418 8.99993H15M4.581 14.9999H4V19.9999L4.581 14.9999ZM4.581 14.9999C5.24581 16.6408 6.43597 18.015 7.96517 18.9072C9.49436 19.7995 11.2763 20.1595 13.0319 19.9308C14.7875 19.7022 16.4178 18.8978 17.6675 17.6437C18.9171 16.3895 19.7156 14.7564 19.938 12.9999M4.581 14.9999H9" stroke="#121212" stroke-linecap="round" stroke-linejoin="round"/>
</g>
</svg>
