<svg width="32" height="32" viewBox="0 0 32 32" fill="none" xmlns="http://www.w3.org/2000/svg">
<g opacity="0.6">
<path d="M16.0002 8.00004V5.33337M16.0002 8.00004C15.2929 8.00004 14.6146 8.28099 14.1145 8.78109C13.6144 9.28119 13.3335 9.95946 13.3335 10.6667C13.3335 11.374 13.6144 12.0522 14.1145 12.5523C14.6146 13.0524 15.2929 13.3334 16.0002 13.3334M16.0002 8.00004C16.7074 8.00004 17.3857 8.28099 17.8858 8.78109C18.3859 9.28119 18.6668 9.95946 18.6668 10.6667C18.6668 11.374 18.3859 12.0522 17.8858 12.5523C17.3857 13.0524 16.7074 13.3334 16.0002 13.3334M16.0002 13.3334V26.6667M8.00016 24C8.70741 24 9.38568 23.7191 9.88578 23.219C10.3859 22.7189 10.6668 22.0406 10.6668 21.3334C10.6668 20.6261 10.3859 19.9479 9.88578 19.4478C9.38568 18.9477 8.70741 18.6667 8.00016 18.6667M8.00016 24C7.29292 24 6.61464 23.7191 6.11454 23.219C5.61445 22.7189 5.3335 22.0406 5.3335 21.3334C5.3335 20.6261 5.61445 19.9479 6.11454 19.4478C6.61464 18.9477 7.29292 18.6667 8.00016 18.6667M8.00016 24V26.6667M8.00016 18.6667V5.33337M24.0002 24C24.7074 24 25.3857 23.7191 25.8858 23.219C26.3859 22.7189 26.6668 22.0406 26.6668 21.3334C26.6668 20.6261 26.3859 19.9479 25.8858 19.4478C25.3857 18.9477 24.7074 18.6667 24.0002 18.6667M24.0002 24C23.2929 24 22.6146 23.7191 22.1145 23.219C21.6144 22.7189 21.3335 22.0406 21.3335 21.3334C21.3335 20.6261 21.6144 19.9479 22.1145 19.4478C22.6146 18.9477 23.2929 18.6667 24.0002 18.6667M24.0002 24V26.6667M24.0002 18.6667V5.33337" stroke="#121212" stroke-linecap="round" stroke-linejoin="round"/>
</g>
</svg>
